<?xml version="1.0" encoding="utf-8"?>
<!-- Generator: Adobe Illustrator 16.0.0, SVG Export Plug-In . SVG Version: 6.00 Build 0)  -->
<!DOCTYPE svg PUBLIC "-//W3C//DTD SVG 1.1//EN" "http://www.w3.org/Graphics/SVG/1.1/DTD/svg11.dtd">
<svg version="1.1" id="图层_1" xmlns="http://www.w3.org/2000/svg" xmlns:xlink="http://www.w3.org/1999/xlink" x="0px" y="0px"
	 width="130px" height="40px" viewBox="0 0 130 40" enable-background="new 0 0 130 40" xml:space="preserve">
<polygon fill="#E60012" points="38.281,17.511 38.707,17.886 39.157,18.29 39.208,18.313 39.261,18.338 39.309,18.39 39.358,18.415 
	39.408,18.44 39.459,18.464 39.509,18.489 39.559,18.489 39.584,18.489 39.635,18.489 39.684,18.515 39.711,18.515 39.761,18.515 
	39.812,18.515 39.859,18.489 39.886,18.489 39.936,18.489 39.986,18.464 40.037,18.464 40.061,18.44 40.111,18.415 40.162,18.39 
	40.212,18.363 40.262,18.338 40.288,18.313 40.337,18.29 40.388,18.238 40.438,18.213 40.487,18.165 40.515,18.112 40.537,18.062 
	40.587,18.011 40.613,17.961 40.639,17.886 40.664,17.836 40.689,17.762 40.715,17.711 40.736,17.635 40.736,17.585 40.764,17.485 
	40.764,17.412 40.764,17.309 40.736,17.209 40.715,17.11 40.689,17.01 40.639,16.908 40.565,16.807 40.487,16.733 40.412,16.632 
	40.312,16.532 40.212,16.458 40.111,16.354 39.986,16.256 39.859,16.18 39.734,16.079 39.584,15.98 39.434,15.879 39.408,15.855 
	39.309,15.803 39.183,15.705 39.059,15.629 38.932,15.554 38.831,15.478 38.731,15.428 38.707,15.401 38.657,15.352 38.556,15.303 
	38.48,15.252 38.43,15.202 38.38,15.176 38.43,15.154 38.48,15.075 38.532,15.002 38.582,14.927 38.632,14.85 38.681,14.776 
	38.707,14.752 38.731,14.701 38.782,14.651 38.831,14.575 38.882,14.499 38.932,14.449 38.982,14.374 39.032,14.323 39.059,14.249 
	39.107,14.199 39.157,14.148 39.183,14.073 39.232,14.023 39.261,13.973 39.309,13.922 39.333,13.872 39.385,13.823 39.408,13.772 
	39.434,13.723 39.483,13.671 39.509,13.621 39.535,13.57 39.559,13.521 39.584,13.471 39.608,13.445 39.659,13.372 39.711,13.271 
	39.761,13.194 39.812,13.119 39.859,13.046 39.909,12.97 39.959,12.894 40.01,12.819 40.037,12.743 40.086,12.667 40.135,12.617 
	40.162,12.543 40.212,12.466 40.238,12.417 40.288,12.341 40.312,12.292 40.361,12.217 40.388,12.166 40.412,12.092 40.465,12.017 
	40.487,11.966 40.515,11.915 40.537,11.839 40.565,11.79 40.587,11.714 40.613,11.665 40.639,11.614 40.639,11.539 40.664,11.489 
	40.689,11.438 40.689,11.363 40.715,11.314 40.715,11.262 40.736,11.212 40.736,11.163 40.736,11.112 40.736,11.036 40.736,10.986 
	40.736,10.938 40.736,10.885 40.715,10.837 40.715,10.761 40.715,10.711 40.689,10.66 40.689,10.609 40.664,10.56 40.639,10.485 
	40.613,10.435 40.587,10.385 40.565,10.309 40.515,10.259 40.465,10.209 40.412,10.157 40.361,10.108 40.288,10.058 40.238,10.034 
	40.162,10.009 40.086,9.983 40.01,9.959 39.936,9.932 39.859,9.932 39.761,9.932 39.684,9.909 39.584,9.909 39.408,9.909 
	38.707,9.909 35.193,9.909 35.143,9.909 35.094,9.932 35.043,9.932 34.992,9.932 34.967,9.959 34.918,9.959 34.867,9.983 
	34.817,9.983 34.793,10.009 34.742,10.034 34.69,10.058 34.665,10.083 34.616,10.108 34.566,10.134 34.541,10.157 34.49,10.185 
	34.466,10.209 34.415,10.259 34.39,10.285 34.366,10.309 34.315,10.359 34.29,10.385 34.266,10.435 34.24,10.485 34.216,10.51 
	34.19,10.56 34.19,10.609 34.165,10.66 34.165,10.711 34.14,10.737 34.14,10.786 34.114,10.837 34.114,10.938 34.114,11.036 
	34.14,11.112 34.14,11.212 34.19,11.289 34.216,11.388 34.266,11.465 34.341,11.539 34.39,11.59 34.466,11.637 34.541,11.688 
	34.616,11.741 34.716,11.765 34.793,11.79 34.892,11.79 34.967,11.814 37.902,11.814 37.979,11.814 38.029,11.814 38.055,11.814 
	38.103,11.814 38.153,11.814 38.182,11.814 38.204,11.814 38.231,11.814 38.254,11.814 38.254,11.839 38.254,11.866 38.254,11.891 
	38.254,11.915 38.254,11.94 38.231,11.94 38.231,11.966 38.231,11.99 38.231,12.017 38.204,12.041 38.182,12.065 38.182,12.115 
	38.153,12.141 38.128,12.192 38.103,12.241 38.08,12.292 38.029,12.341 38.003,12.391 37.979,12.442 37.929,12.491 37.879,12.568 
	37.828,12.617 37.805,12.695 37.754,12.768 37.703,12.819 37.651,12.894 37.602,12.97 37.554,13.046 37.504,13.094 37.451,13.169 
	37.4,13.246 37.351,13.32 37.302,13.395 37.251,13.471 37.2,13.57 37.15,13.646 37.126,13.671 37.1,13.723 37.075,13.772 
	37.027,13.797 37,13.848 36.977,13.896 36.95,13.922 36.899,13.973 36.875,14.023 36.85,14.073 36.799,14.099 36.774,14.148 
	36.725,14.199 36.699,14.249 36.648,14.298 36.598,14.347 36.573,14.398 36.523,14.449 36.474,14.499 36.423,14.551 36.399,14.599 
	36.349,14.651 36.299,14.701 36.248,14.776 36.197,14.827 36.148,14.876 36.099,14.927 36.047,15.002 35.998,15.05 35.92,15.102 
	35.871,15.176 35.821,15.228 35.771,15.278 35.695,15.352 35.646,15.401 35.594,15.453 35.547,15.528 35.47,15.579 35.419,15.653 
	35.37,15.705 35.294,15.754 35.244,15.829 35.193,15.879 35.118,15.931 35.069,15.98 35.018,16.056 34.941,16.106 34.892,16.155 
	34.844,16.23 34.766,16.282 34.716,16.331 34.642,16.381 34.591,16.458 34.541,16.507 34.466,16.556 34.415,16.607 34.366,16.682 
	34.29,16.733 34.24,16.784 34.165,16.835 34.114,16.908 34.04,16.958 33.99,17.01 33.938,17.059 33.813,17.183 33.687,17.283 
	33.589,17.383 33.488,17.485 33.388,17.585 33.313,17.661 33.236,17.762 33.162,17.836 33.088,17.911 33.038,17.987 32.987,18.062 
	32.933,18.137 32.886,18.187 32.858,18.262 32.835,18.338 32.81,18.415 32.81,18.464 32.81,18.515 32.81,18.565 32.81,18.615 
	32.81,18.64 32.835,18.69 32.835,18.739 32.835,18.79 32.858,18.84 32.886,18.893 32.886,18.94 32.909,18.991 32.933,19.016 
	32.961,19.066 32.987,19.117 33.038,19.167 33.061,19.216 33.11,19.267 33.162,19.316 33.209,19.343 33.286,19.367 33.336,19.392 
	33.411,19.417 33.488,19.417 33.538,19.443 33.614,19.443 33.687,19.417 33.738,19.417 33.813,19.392 33.889,19.392 33.964,19.367 
	34.04,19.343 34.114,19.292 34.19,19.267 34.24,19.216 34.315,19.191 34.39,19.141 34.466,19.091 34.541,19.04 34.616,18.991 
	34.69,18.915 34.766,18.867 34.844,18.79 34.918,18.715 34.992,18.64 35.069,18.565 35.143,18.489 35.218,18.415 35.268,18.338 
	35.345,18.262 35.419,18.165 35.493,18.088 35.571,18.011 35.646,17.938 35.722,17.836 35.795,17.762 35.896,17.687 35.972,17.585 
	34.892,24.487 34.867,24.559 34.867,24.66 34.892,24.735 34.918,24.838 34.941,24.913 34.992,24.988 35.043,25.063 35.094,25.138 
	35.143,25.164 35.167,25.213 35.218,25.236 35.244,25.266 35.294,25.287 35.318,25.313 35.37,25.339 35.419,25.363 35.47,25.363 
	35.52,25.389 35.547,25.389 35.594,25.413 35.646,25.413 35.695,25.413 35.746,25.413 35.795,25.413 35.847,25.413 35.896,25.413 
	35.947,25.413 35.998,25.389 36.047,25.389 36.099,25.363 36.148,25.363 36.197,25.339 36.223,25.313 36.272,25.313 36.323,25.287 
	36.374,25.266 36.399,25.236 36.449,25.213 36.474,25.188 36.523,25.138 36.598,25.088 36.648,25.012 36.725,24.962 36.774,24.887 
	36.799,24.786 36.85,24.712 36.875,24.637 36.875,24.559 38.055,17.335 "/>
<polygon fill="#E60012" points="57.877,24.261 57.976,24.233 58.053,24.208 58.153,24.16 58.226,24.136 58.328,24.084 58.403,24.06 
	58.503,24.008 58.579,23.984 58.652,23.936 58.754,23.908 58.829,23.859 58.93,23.831 59.005,23.783 59.079,23.759 59.181,23.708 
	59.257,23.658 59.33,23.632 59.431,23.584 59.506,23.559 59.581,23.506 59.681,23.456 59.758,23.433 59.832,23.381 59.908,23.357 
	59.983,23.308 60.057,23.255 60.134,23.232 60.209,23.181 60.286,23.155 60.36,23.105 60.435,23.056 60.512,23.03 60.585,22.98 
	60.634,22.955 60.711,22.904 60.786,22.881 60.861,22.83 60.912,22.778 60.986,22.756 61.037,22.705 61.113,22.679 61.162,22.63 
	61.238,22.604 61.288,22.552 61.363,22.53 61.414,22.478 61.463,22.453 61.539,22.404 61.59,22.377 61.639,22.327 61.689,22.303 
	61.739,22.254 61.789,22.227 61.84,22.177 61.915,22.153 61.965,22.1 62.015,22.076 62.064,22.027 62.114,21.977 62.166,21.951 
	62.215,21.902 62.267,21.85 62.317,21.826 62.367,21.777 62.415,21.725 62.468,21.675 62.516,21.649 62.567,21.598 62.618,21.55 
	62.667,21.5 62.717,21.45 62.768,21.425 62.817,21.375 62.87,21.324 62.917,21.272 62.967,21.225 63.021,21.174 63.044,21.123 
	63.095,21.074 63.146,21.023 63.196,20.972 63.242,20.921 63.297,20.872 63.347,20.821 63.372,20.772 63.422,20.722 63.472,20.673 
	63.522,20.622 63.573,20.573 63.597,20.497 63.645,20.446 63.697,20.396 63.723,20.346 63.772,20.296 63.822,20.245 63.846,20.196 
	63.896,20.144 63.922,20.069 63.972,20.02 63.998,19.968 64.05,19.92 64.072,19.867 64.122,19.819 64.147,19.744 64.197,19.694 
	64.223,19.643 64.248,19.592 64.298,19.543 64.323,19.492 64.351,19.417 64.373,19.367 64.424,19.316 64.452,19.267 64.474,19.216 
	64.502,19.141 64.523,19.091 64.549,19.04 64.599,18.991 64.625,18.94 64.648,18.867 64.648,18.84 64.674,18.815 64.699,18.765 
	64.727,18.715 64.749,18.665 64.774,18.615 64.8,18.565 64.825,18.489 64.85,18.44 64.875,18.39 64.901,18.338 64.925,18.29 
	64.95,18.238 64.977,18.187 65,18.137 65.025,18.088 65.05,18.038 65.05,17.987 65.079,17.938 65.101,17.886 65.126,17.836 
	65.154,17.787 65.177,17.736 65.202,17.661 65.227,17.612 65.254,17.562 65.254,17.511 65.277,17.461 65.304,17.435 65.328,17.335 
	65.376,17.259 65.401,17.183 65.43,17.11 65.43,17.059 65.453,16.984 65.479,16.908 65.479,16.835 65.505,16.784 65.505,16.708 
	65.505,16.632 65.505,16.583 65.505,16.507 65.505,16.458 65.505,16.381 65.479,16.331 65.453,16.23 65.43,16.129 65.376,16.056 
	65.328,15.98 65.254,15.904 65.177,15.829 65.101,15.779 65,15.754 64.925,15.73 64.85,15.73 64.8,15.705 64.749,15.705 
	64.674,15.705 64.648,15.705 64.625,15.705 64.549,15.73 64.502,15.73 64.452,15.754 64.399,15.779 64.323,15.803 64.272,15.829 
	64.223,15.855 64.172,15.879 64.122,15.931 64.072,15.956 64.021,16.005 63.972,16.056 63.922,16.106 63.873,16.155 63.822,16.207 
	63.796,16.282 63.746,16.331 63.697,16.407 63.672,16.482 63.623,16.556 63.597,16.632 63.546,16.708 63.522,16.784 63.472,16.884 
	63.444,16.958 63.396,17.059 63.372,17.11 63.372,17.158 63.347,17.209 63.32,17.235 63.32,17.283 63.297,17.335 63.27,17.383 
	63.242,17.435 63.222,17.485 63.222,17.511 63.196,17.562 63.17,17.612 63.146,17.661 63.121,17.711 63.095,17.762 63.069,17.813 
	63.044,17.86 63.021,17.911 62.993,17.961 62.967,18.011 62.944,18.062 62.917,18.112 62.895,18.165 62.842,18.213 62.817,18.262 
	62.794,18.313 62.768,18.363 62.743,18.415 62.717,18.464 62.667,18.515 62.645,18.565 62.618,18.64 62.567,18.69 62.542,18.739 
	62.516,18.79 62.468,18.84 62.441,18.893 62.415,18.94 62.367,18.991 62.34,19.04 62.29,19.091 62.267,19.141 62.24,19.191 
	62.189,19.243 62.166,19.292 62.114,19.343 62.064,19.392 62.04,19.443 61.991,19.492 61.965,19.517 61.915,19.568 61.866,19.619 
	61.84,19.668 61.789,19.719 61.739,19.768 61.715,19.819 61.665,19.867 61.614,19.896 61.564,19.945 61.514,19.995 61.489,20.045 
	61.463,20.045 61.439,20.095 61.389,20.12 61.338,20.171 61.288,20.22 61.238,20.27 61.188,20.296 61.137,20.346 61.088,20.396 
	61.037,20.421 60.986,20.472 60.937,20.522 60.861,20.573 60.812,20.596 60.761,20.648 60.711,20.696 60.634,20.747 60.585,20.772 
	60.512,20.821 60.461,20.872 60.387,20.921 60.31,20.949 60.259,20.998 60.183,21.048 60.107,21.074 60.033,21.123 59.956,21.174 
	59.908,21.225 59.832,21.249 59.758,21.299 59.681,21.349 59.581,21.375 59.506,21.425 59.431,21.475 59.355,21.525 59.28,21.55 
	59.181,21.598 59.104,21.649 59.029,21.675 58.93,21.725 58.854,21.777 58.778,21.801 58.679,21.85 58.604,21.875 58.528,21.925 
	58.429,21.951 58.352,22.001 58.278,22.027 58.177,22.076 58.103,22.1 58.002,22.153 57.925,22.177 57.852,22.227 57.75,22.254 
	57.676,22.278 57.574,22.327 57.501,22.354 57.399,22.377 57.322,22.404 57.223,22.453 57.146,22.478 57.072,22.504 56.973,22.53 
	56.896,22.58 56.797,22.604 56.696,22.63 56.621,22.653 56.52,22.679 56.445,22.705 56.346,22.729 56.269,22.756 56.195,22.778 
	56.118,22.804 56.02,22.83 55.944,22.856 55.869,22.881 55.819,22.904 55.743,22.93 55.668,22.955 55.616,22.98 55.544,22.98 
	55.49,23.004 55.417,23.03 55.364,23.056 55.317,23.056 55.269,23.082 55.215,23.105 55.166,23.105 55.116,23.131 55.064,23.155 
	55.039,23.155 54.992,23.181 54.965,23.181 54.915,23.207 54.891,23.207 54.891,23.232 54.863,23.232 54.84,23.232 54.813,23.255 
	54.791,23.255 54.688,23.308 54.614,23.331 54.538,23.381 54.464,23.407 54.412,23.456 54.337,23.506 54.287,23.559 54.237,23.608 
	54.187,23.658 54.162,23.683 54.137,23.731 54.112,23.759 54.087,23.809 54.062,23.831 54.037,23.884 54.012,23.936 53.987,23.958 
	53.987,24.008 53.962,24.06 53.936,24.11 53.936,24.136 53.936,24.184 53.911,24.233 53.911,24.284 53.911,24.361 53.911,24.46 
	53.911,24.535 53.936,24.612 53.962,24.686 53.987,24.762 54.012,24.838 54.062,24.887 54.112,24.962 54.187,25.012 54.263,25.063 
	54.337,25.088 54.438,25.111 54.513,25.138 54.614,25.164 54.714,25.164 54.74,25.164 54.791,25.164 54.84,25.164 54.891,25.164 
	54.915,25.164 54.965,25.164 55.015,25.164 55.064,25.164 55.116,25.138 55.166,25.138 55.24,25.138 55.292,25.111 55.342,25.111 
	55.417,25.088 55.467,25.088 55.544,25.063 55.593,25.063 55.668,25.037 55.743,25.012 55.819,25.012 55.895,24.988 55.969,24.962 
	56.044,24.936 56.118,24.913 56.195,24.887 56.269,24.862 56.37,24.838 56.445,24.813 56.52,24.786 56.621,24.762 56.696,24.712 
	56.797,24.686 56.896,24.66 56.973,24.612 57.072,24.587 57.172,24.559 57.248,24.511 57.348,24.487 57.448,24.46 57.524,24.412 
	57.624,24.388 57.7,24.336 57.801,24.31 "/>
<polygon fill="#E60012" points="36.223,7.348 36.248,7.399 36.248,7.449 36.272,7.5 36.299,7.526 36.323,7.575 36.349,7.625 
	36.374,7.649 36.399,7.7 36.423,7.75 36.474,7.802 36.498,7.826 37.05,8.555 37.577,9.355 37.651,9.457 37.728,9.532 37.805,9.607 
	37.879,9.682 37.955,9.733 38.029,9.783 38.103,9.832 38.204,9.858 38.306,9.883 38.38,9.883 38.48,9.883 38.582,9.858 
	38.657,9.832 38.707,9.783 38.731,9.783 38.808,9.708 38.882,9.658 38.932,9.607 38.982,9.532 39.032,9.481 39.059,9.431 
	39.107,9.381 39.157,9.331 39.183,9.282 39.208,9.231 39.261,9.182 39.283,9.131 39.309,9.081 39.333,9.029 39.358,8.979 
	39.358,8.93 39.385,8.88 39.385,8.831 39.385,8.804 39.408,8.752 39.408,8.704 39.385,8.653 39.385,8.603 39.385,8.555 
	39.385,8.504 39.358,8.453 39.358,8.402 39.333,8.376 39.333,8.327 39.309,8.276 39.283,8.228 39.261,8.151 39.232,8.101 
	39.208,8.051 39.183,8.001 39.157,7.95 39.133,7.902 39.107,7.851 39.083,7.802 39.059,7.75 39.032,7.7 39.008,7.649 38.958,7.601 
	38.932,7.55 38.907,7.5 38.856,7.474 38.831,7.425 38.808,7.373 38.757,7.323 38.731,7.274 38.707,7.274 38.182,6.671 38.103,6.596 
	38.029,6.496 37.955,6.446 37.902,6.371 37.828,6.321 37.754,6.271 37.703,6.221 37.626,6.193 37.577,6.168 37.504,6.145 
	37.451,6.12 37.375,6.12 37.325,6.095 37.251,6.095 37.175,6.095 37.1,6.095 37,6.145 36.925,6.168 36.824,6.193 36.748,6.245 
	36.674,6.293 36.598,6.345 36.548,6.396 36.474,6.472 36.399,6.546 36.349,6.62 36.299,6.697 36.248,6.771 36.223,6.849 
	36.197,6.947 36.197,7.049 36.197,7.123 36.197,7.174 36.197,7.225 36.197,7.274 36.223,7.299 "/>
<polygon fill="#E60012" points="50.726,24.06 50.775,24.008 50.8,23.984 50.851,23.936 50.876,23.884 50.901,23.831 50.95,23.783 
	50.976,23.731 51.001,23.683 51.026,23.632 51.052,23.584 51.077,23.506 51.128,23.456 51.128,23.381 51.151,23.308 51.177,23.232 
	51.202,23.155 51.227,23.082 51.251,23.004 51.276,22.904 51.302,22.804 51.302,22.729 51.327,22.63 51.353,22.504 51.353,22.404 
	51.376,22.278 51.402,22.177 51.402,22.051 51.427,21.925 51.427,21.826 51.452,21.699 51.452,21.598 51.452,21.5 51.478,21.425 
	51.478,21.349 51.478,21.272 51.478,21.2 51.503,21.123 51.503,21.074 51.503,21.023 51.503,20.972 51.503,20.921 51.478,20.872 
	51.478,20.821 51.452,20.747 51.427,20.673 51.376,20.596 51.353,20.522 51.302,20.446 51.251,20.396 51.202,20.346 51.128,20.296 
	51.077,20.245 51.001,20.22 50.926,20.196 50.851,20.171 50.751,20.144 50.675,20.144 50.6,20.144 50.498,20.144 50.425,20.171 
	50.323,20.196 50.249,20.22 50.147,20.27 50.071,20.321 49.996,20.37 49.946,20.446 49.87,20.497 49.822,20.596 49.771,20.673 
	49.721,20.747 49.697,20.848 49.646,20.949 49.62,21.048 49.595,21.174 49.57,21.272 49.57,21.324 49.57,21.349 49.545,21.399 
	49.545,21.45 49.545,21.475 49.521,21.525 49.521,21.575 49.521,21.625 49.494,21.675 49.494,21.725 49.494,21.777 49.494,21.826 
	49.469,21.875 49.469,21.951 49.469,22.001 49.469,22.051 49.444,22.1 49.444,22.177 49.444,22.227 49.444,22.278 49.444,22.303 
	49.421,22.354 49.421,22.404 49.421,22.427 49.421,22.453 49.394,22.478 49.394,22.504 49.394,22.53 49.394,22.552 49.394,22.58 
	49.369,22.58 49.345,22.63 49.345,22.653 49.319,22.705 49.295,22.729 49.27,22.756 49.244,22.778 49.218,22.804 49.168,22.804 
	49.144,22.804 49.094,22.804 49.044,22.83 48.994,22.83 48.918,22.83 48.843,22.83 48.768,22.83 48.693,22.83 48.592,22.856 
	48.518,22.856 48.418,22.856 48.316,22.856 48.217,22.856 48.117,22.856 48.039,22.856 47.965,22.856 47.864,22.856 47.814,22.856 
	47.738,22.856 47.689,22.856 47.611,22.856 47.563,22.856 47.514,22.856 47.487,22.83 47.439,22.83 47.414,22.83 47.387,22.83 
	47.362,22.804 47.313,22.804 47.287,22.778 47.261,22.778 47.238,22.756 47.211,22.756 47.188,22.729 47.188,22.705 47.161,22.679 
	47.161,22.653 47.161,22.63 47.161,22.58 47.161,22.552 47.161,22.53 47.161,22.478 47.161,22.453 47.188,22.404 47.188,22.354 
	47.991,17.235 47.991,17.183 48.016,17.133 48.016,17.083 48.016,17.034 48.016,16.984 47.991,16.935 47.991,16.908 47.991,16.857 
	47.965,16.807 47.938,16.758 47.938,16.708 47.915,16.682 47.89,16.632 47.864,16.583 47.838,16.556 47.788,16.507 47.738,16.431 
	47.665,16.381 47.563,16.331 47.487,16.282 47.387,16.256 47.313,16.23 47.211,16.23 47.11,16.23 47.062,16.23 47.011,16.256 
	46.985,16.256 46.937,16.256 46.886,16.282 46.835,16.282 46.811,16.307 46.761,16.331 46.71,16.354 46.685,16.381 46.636,16.381 
	46.584,16.407 46.56,16.458 46.534,16.482 46.484,16.507 46.51,16.431 46.534,16.381 46.534,16.307 46.56,16.256 46.584,16.207 
	46.584,16.129 46.61,16.079 46.61,16.03 46.636,15.956 46.661,15.904 46.661,15.855 46.685,15.779 46.685,15.73 46.71,15.679 
	46.735,15.604 46.735,15.554 46.761,15.503 46.761,15.428 46.785,15.38 46.785,15.328 46.811,15.252 46.811,15.202 46.835,15.154 
	46.835,15.102 46.861,15.027 46.861,14.977 46.886,14.902 46.911,14.85 46.911,14.776 46.937,14.724 46.937,14.651 46.962,14.575 
	46.962,14.524 46.985,14.449 47.011,14.374 47.011,14.298 47.036,14.223 47.062,14.148 47.062,14.073 47.087,13.999 47.11,13.922 
	47.11,13.823 47.136,13.747 47.161,13.671 47.161,13.57 47.188,13.496 47.211,13.395 47.211,13.32 47.238,13.22 47.261,13.146 
	47.287,13.046 47.287,12.942 47.313,12.843 47.337,12.743 47.362,12.644 47.387,12.568 47.387,12.466 47.414,12.368 47.439,12.266 
	47.463,12.192 47.463,12.092 47.487,12.017 47.514,11.915 47.514,11.839 47.538,11.741 47.563,11.665 47.563,11.59 47.589,11.514 
	47.611,11.438 47.611,11.363 47.64,11.289 47.64,11.212 47.665,11.138 47.665,11.087 47.689,11.012 47.689,10.938 47.716,10.885 
	47.716,10.812 47.738,10.761 47.738,10.711 47.764,10.66 47.764,10.586 47.764,10.536 47.788,10.485 47.788,10.435 47.814,10.385 
	47.814,10.334 47.814,10.259 47.838,10.185 47.838,10.108 47.838,10.034 47.864,9.959 47.864,9.883 47.838,9.832 47.838,9.757 
	47.838,9.708 47.838,9.633 47.814,9.58 47.788,9.532 47.764,9.481 47.738,9.431 47.716,9.381 47.689,9.331 47.64,9.282 
	47.611,9.256 47.563,9.231 47.538,9.205 47.487,9.182 47.439,9.155 47.387,9.131 47.337,9.105 47.287,9.105 47.238,9.105 
	47.188,9.081 47.136,9.081 47.087,9.081 47.036,9.081 46.985,9.081 46.937,9.081 46.835,9.105 46.761,9.131 46.685,9.155 
	46.61,9.182 46.534,9.231 46.46,9.282 46.409,9.331 46.335,9.381 46.31,9.408 46.31,9.431 46.284,9.457 46.259,9.481 46.208,9.532 
	46.185,9.58 46.158,9.607 46.158,9.658 46.134,9.708 46.108,9.757 46.084,9.807 46.058,9.832 46.058,9.883 46.034,9.959 
	46.007,10.009 46.007,10.058 45.983,10.108 45.983,10.157 45.958,10.209 45.958,10.285 45.935,10.334 45.935,10.385 45.906,10.435 
	45.906,10.51 45.884,10.56 45.884,10.635 45.856,10.688 45.856,10.737 45.833,10.812 45.833,10.862 45.806,10.938 45.806,11.012 
	45.781,11.062 45.281,13.621 45.256,13.723 45.256,13.797 45.229,13.896 45.204,13.999 45.18,14.073 45.18,14.173 45.153,14.249 
	45.129,14.323 45.129,14.426 45.104,14.499 45.079,14.575 45.057,14.724 45.028,14.827 45.004,14.902 44.978,15.05 44.978,15.102 
	44.954,15.176 44.928,15.252 44.928,15.328 44.902,15.401 44.878,15.453 44.878,15.528 44.854,15.604 44.828,15.653 44.828,15.73 
	44.803,15.779 44.777,15.855 44.777,15.904 44.752,15.956 44.752,16.005 44.727,16.079 44.702,16.129 44.702,16.18 44.678,16.256 
	44.652,16.307 44.652,16.381 44.627,16.431 44.602,16.482 44.577,16.556 44.577,16.632 44.553,16.682 44.527,16.758 44.502,16.807 
	44.477,16.884 44.451,16.958 44.426,17.034 44.4,17.083 44.377,17.158 44.351,17.235 44.326,17.309 44.301,17.383 44.277,17.461 
	44.252,17.535 44.228,17.612 44.177,17.687 44.151,17.762 44.126,17.836 44.102,17.911 44.076,17.987 44.025,18.088 44.001,18.165 
	43.975,18.238 43.925,18.313 43.899,18.39 43.851,18.489 43.825,18.565 43.775,18.64 43.75,18.715 43.7,18.815 43.649,18.893 
	43.6,18.966 43.548,19.066 43.5,19.141 43.449,19.216 43.398,19.316 43.348,19.392 43.299,19.468 43.224,19.568 43.172,19.643 
	43.098,19.744 43.047,19.819 42.974,19.92 42.896,19.995 42.846,20.095 42.771,20.171 42.698,20.27 42.62,20.346 42.545,20.446 
	42.47,20.522 42.368,20.622 42.295,20.722 42.218,20.796 42.144,20.898 42.043,20.998 41.968,21.074 41.868,21.174 41.792,21.249 
	41.691,21.349 41.616,21.425 41.517,21.525 41.441,21.598 41.366,21.675 41.266,21.751 41.191,21.826 41.116,21.925 41.016,22.001 
	40.939,22.051 40.865,22.127 40.789,22.202 40.689,22.278 40.613,22.354 40.537,22.404 40.465,22.478 40.388,22.53 40.312,22.604 
	40.238,22.653 40.162,22.729 40.086,22.778 40.01,22.83 39.936,22.881 39.859,22.955 39.785,23.004 39.711,23.056 39.635,23.105 
	39.559,23.131 39.483,23.181 39.408,23.232 39.333,23.282 39.208,23.357 39.083,23.456 38.958,23.532 38.856,23.608 38.731,23.683 
	38.707,23.708 38.657,23.759 38.556,23.831 38.48,23.884 38.405,23.936 38.355,24.008 38.281,24.06 38.231,24.11 38.204,24.16 
	38.153,24.208 38.128,24.261 38.103,24.336 38.08,24.388 38.08,24.435 38.055,24.487 38.055,24.535 38.029,24.587 38.029,24.66 
	38.029,24.712 38.029,24.762 38.029,24.813 38.055,24.862 38.08,24.913 38.08,24.962 38.103,25.012 38.128,25.063 38.182,25.111 
	38.204,25.138 38.231,25.188 38.281,25.213 38.331,25.266 38.38,25.287 38.405,25.313 38.456,25.339 38.507,25.363 38.582,25.363 
	38.632,25.389 38.681,25.413 38.707,25.413 38.731,25.413 38.808,25.413 38.856,25.439 38.932,25.439 38.982,25.439 39.032,25.439 
	39.083,25.439 39.133,25.413 39.183,25.413 39.232,25.389 39.283,25.389 39.333,25.363 39.385,25.339 39.408,25.339 39.434,25.313 
	39.483,25.287 39.535,25.266 39.608,25.236 39.659,25.213 39.734,25.188 39.785,25.138 39.859,25.111 39.909,25.063 39.986,25.012 
	40.061,24.988 40.135,24.936 40.212,24.887 40.288,24.838 40.388,24.762 40.465,24.712 40.537,24.66 40.639,24.587 40.715,24.535 
	40.815,24.46 40.915,24.412 41.016,24.336 41.091,24.261 41.214,24.184 41.316,24.11 41.416,24.036 41.517,23.958 41.592,23.859 
	41.691,23.783 41.792,23.708 41.893,23.632 41.993,23.559 42.068,23.481 42.168,23.407 42.271,23.308 42.344,23.232 42.445,23.155 
	42.519,23.082 42.62,22.98 42.698,22.904 42.771,22.83 42.869,22.756 42.947,22.653 43.023,22.58 43.098,22.504 43.198,22.404 
	43.272,22.327 43.348,22.254 43.425,22.153 43.5,22.076 43.574,22.001 43.649,21.902 43.7,21.826 43.775,21.751 43.851,21.649 
	43.925,21.575 43.975,21.475 44.051,21.399 44.102,21.324 44.177,21.225 44.228,21.149 44.301,21.074 44.351,20.972 44.426,20.898 
	44.477,20.821 44.527,20.747 44.577,20.673 44.652,20.573 44.702,20.497 44.752,20.421 44.803,20.346 44.854,20.27 44.902,20.196 
	44.954,20.12 45.004,20.045 45.057,19.968 45.079,19.896 45.129,19.819 45.18,19.744 45.229,19.668 45.256,19.592 45.306,19.543 
	45.329,19.468 45.381,19.392 45.405,19.316 45.456,19.243 45.48,19.167 45.53,19.117 45.557,19.04 45.582,18.966 45.608,18.915 
	45.657,18.84 45.681,18.765 45.707,18.715 45.731,18.64 45.781,18.565 45.806,18.515 45.833,18.44 45.856,18.39 45.884,18.313 
	45.906,18.238 45.935,18.187 45.958,18.137 45.204,22.856 45.204,22.881 45.204,22.904 45.204,22.955 45.204,22.98 45.204,23.03 
	45.204,23.056 45.18,23.082 45.18,23.131 45.18,23.155 45.18,23.207 45.18,23.232 45.18,23.282 45.18,23.331 45.204,23.357 
	45.204,23.407 45.204,23.433 45.204,23.481 45.204,23.532 45.229,23.584 45.229,23.632 45.256,23.683 45.256,23.731 45.281,23.783 
	45.306,23.809 45.329,23.859 45.355,23.908 45.381,23.958 45.405,24.008 45.432,24.036 45.456,24.084 45.48,24.136 45.53,24.184 
	45.582,24.233 45.608,24.261 45.657,24.31 45.707,24.361 45.781,24.388 45.833,24.412 45.884,24.46 45.958,24.487 46.007,24.511 
	46.084,24.535 46.158,24.559 46.208,24.587 46.284,24.612 46.31,24.612 46.358,24.612 46.434,24.637 46.534,24.637 46.56,24.66 
	46.61,24.66 46.661,24.66 46.685,24.66 46.735,24.66 46.785,24.686 46.835,24.686 46.886,24.686 46.911,24.686 46.962,24.686 
	47.011,24.712 47.062,24.712 47.136,24.712 47.188,24.712 47.238,24.712 47.287,24.712 47.337,24.712 47.414,24.712 47.463,24.712 
	47.514,24.735 47.589,24.735 47.64,24.735 47.716,24.735 47.764,24.735 47.838,24.735 47.915,24.735 47.965,24.735 48.039,24.735 
	48.117,24.735 48.191,24.735 48.267,24.735 48.316,24.735 48.418,24.735 48.518,24.735 48.617,24.735 48.719,24.735 48.817,24.735 
	48.894,24.735 48.969,24.735 49.068,24.712 49.144,24.712 49.218,24.712 49.295,24.712 49.369,24.686 49.444,24.686 49.494,24.686 
	49.57,24.686 49.646,24.66 49.697,24.66 49.771,24.637 49.822,24.637 49.87,24.612 49.946,24.587 49.996,24.559 50.071,24.559 
	50.121,24.535 50.175,24.511 50.223,24.487 50.273,24.435 50.323,24.412 50.374,24.388 50.425,24.336 50.474,24.31 50.524,24.261 
	50.575,24.233 50.6,24.184 50.649,24.16 50.699,24.11 "/>
<polygon fill="#E60012" points="41.164,17.259 41.164,17.309 41.191,17.36 41.214,17.412 41.214,17.435 41.24,17.485 41.266,17.535 
	41.291,17.562 41.316,17.612 41.366,17.687 41.441,17.736 41.517,17.813 41.592,17.836 41.667,17.886 41.767,17.911 41.842,17.938 
	41.942,17.938 41.993,17.938 42.043,17.938 42.093,17.938 42.144,17.938 42.192,17.911 42.218,17.911 42.271,17.886 42.318,17.86 
	42.368,17.86 42.419,17.836 42.445,17.813 42.495,17.787 42.545,17.762 42.568,17.736 42.62,17.711 42.671,17.661 42.698,17.635 
	42.747,17.612 42.771,17.562 42.82,17.535 42.846,17.485 42.869,17.435 42.896,17.412 42.92,17.36 42.947,17.309 42.974,17.259 
	42.996,17.209 43.023,17.158 43.023,17.11 43.047,17.059 43.047,17.01 43.047,16.958 44.228,9.633 44.228,9.58 44.228,9.532 
	44.252,9.481 44.252,9.431 44.277,9.408 44.277,9.355 44.277,9.305 44.301,9.282 44.301,9.231 44.326,9.205 44.326,9.155 
	44.351,9.131 44.351,9.105 44.377,9.081 44.377,9.054 44.377,9.029 44.4,9.004 44.426,8.956 44.477,8.93 44.502,8.905 44.527,8.88 
	44.577,8.854 44.602,8.831 44.652,8.804 44.678,8.804 44.702,8.804 44.752,8.804 44.777,8.779 44.803,8.779 44.854,8.779 
	44.878,8.752 44.928,8.752 44.954,8.752 45.004,8.752 45.028,8.752 45.079,8.752 45.129,8.729 45.18,8.729 45.229,8.729 
	45.281,8.729 46.31,8.729 49.57,8.729 49.595,8.729 49.646,8.729 49.697,8.729 49.721,8.752 49.771,8.752 49.795,8.752 
	49.846,8.752 49.87,8.752 49.896,8.752 49.922,8.779 49.972,8.779 49.996,8.779 50.021,8.779 50.048,8.804 50.071,8.804 
	50.098,8.804 50.147,8.831 50.175,8.831 50.175,8.854 50.198,8.854 50.198,8.88 50.198,8.905 50.198,8.93 50.198,8.956 
	50.198,8.979 50.198,9.004 50.198,9.054 50.198,9.081 50.198,9.105 50.198,9.131 50.198,9.182 50.175,9.205 50.175,9.231 
	50.175,9.282 50.175,9.305 50.175,9.355 50.175,9.381 50.147,9.431 50.147,9.457 48.944,17.133 48.944,17.158 48.944,17.209 
	48.918,17.259 48.918,17.309 48.944,17.36 48.944,17.412 48.944,17.461 48.969,17.511 48.969,17.562 48.994,17.612 49.018,17.661 
	49.044,17.711 49.068,17.736 49.094,17.787 49.118,17.836 49.144,17.86 49.218,17.938 49.295,18.011 49.369,18.062 49.469,18.112 
	49.545,18.137 49.646,18.165 49.745,18.165 49.846,18.165 49.896,18.165 49.946,18.137 49.972,18.137 50.021,18.112 50.071,18.112 
	50.121,18.088 50.147,18.088 50.198,18.062 50.249,18.038 50.273,18.011 50.323,17.987 50.374,17.961 50.397,17.938 50.45,17.911 
	50.474,17.886 50.498,17.836 50.549,17.813 50.575,17.787 50.6,17.736 50.649,17.711 50.675,17.661 50.699,17.635 50.726,17.585 
	50.751,17.535 50.775,17.511 50.775,17.461 50.8,17.412 50.824,17.383 50.824,17.335 50.851,17.283 50.851,17.235 50.851,17.183 
	52.129,9.155 52.129,9.081 52.155,9.004 52.155,8.956 52.155,8.88 52.155,8.804 52.155,8.729 52.155,8.653 52.129,8.555 
	52.129,8.477 52.129,8.376 52.104,8.301 52.078,8.202 52.078,8.101 52.054,8.027 52.029,7.926 52.004,7.802 51.979,7.75 51.979,7.7 
	51.954,7.625 51.929,7.575 51.879,7.526 51.854,7.474 51.828,7.425 51.777,7.373 51.753,7.323 51.703,7.274 51.653,7.225 
	51.604,7.199 51.553,7.148 51.503,7.123 51.427,7.098 51.376,7.049 51.327,7.022 51.251,6.999 51.202,6.972 51.128,6.947 
	51.052,6.921 50.976,6.921 50.901,6.897 50.824,6.872 50.751,6.872 50.675,6.872 50.6,6.849 50.524,6.849 50.425,6.849 
	50.347,6.821 50.249,6.821 50.147,6.821 46.31,6.821 45.004,6.821 44.902,6.821 44.803,6.821 44.727,6.849 44.627,6.849 
	44.553,6.849 44.477,6.872 44.377,6.872 44.301,6.872 44.228,6.897 44.151,6.921 44.076,6.921 44.001,6.947 43.925,6.972 
	43.851,6.999 43.801,7.022 43.725,7.049 43.649,7.073 43.6,7.123 43.524,7.148 43.475,7.174 43.425,7.225 43.374,7.248 
	43.324,7.299 43.249,7.348 43.198,7.399 43.172,7.425 43.124,7.474 43.072,7.526 43.047,7.601 42.996,7.649 42.974,7.7 42.92,7.75 
	42.869,7.851 42.82,7.95 42.771,8.051 42.721,8.151 42.671,8.252 42.645,8.327 42.594,8.427 42.568,8.504 42.545,8.579 
	42.495,8.679 42.47,8.752 42.445,8.831 42.419,8.905 42.419,8.979 42.396,9.054 42.396,9.131 41.164,16.908 41.141,16.935 
	41.141,16.984 41.141,17.034 41.141,17.083 41.141,17.133 41.141,17.183 41.164,17.235 "/>
<polygon fill="#E60012" points="55.969,13.999 55.994,14.048 55.994,14.099 56.02,14.122 56.044,14.173 56.07,14.223 56.095,14.274 
	56.118,14.298 56.145,14.347 56.195,14.426 56.269,14.475 56.346,14.524 56.445,14.575 56.52,14.625 56.621,14.625 56.721,14.651 
	56.82,14.651 56.847,14.651 56.896,14.625 56.947,14.625 56.996,14.625 57.047,14.599 57.072,14.599 57.124,14.575 57.172,14.551 
	57.197,14.551 57.248,14.524 57.299,14.499 57.322,14.475 57.374,14.449 57.399,14.426 57.448,14.374 57.474,14.347 57.501,14.323 
	57.548,14.274 57.574,14.249 57.602,14.199 57.624,14.173 57.649,14.122 57.676,14.073 57.7,14.048 57.727,13.999 57.75,13.948 
	57.776,13.896 57.776,13.872 57.801,13.823 57.801,13.772 57.826,13.723 57.826,13.671 58.002,12.568 58.002,12.519 58.025,12.442 
	58.053,12.391 58.053,12.368 58.076,12.341 58.103,12.318 58.126,12.318 58.153,12.318 58.177,12.318 58.2,12.292 58.226,12.292 
	58.253,12.292 58.301,12.292 58.328,12.292 58.377,12.266 58.429,12.266 58.479,12.266 58.528,12.266 58.579,12.266 58.629,12.266 
	58.704,12.266 58.754,12.266 61.463,12.266 64.648,12.266 65.881,12.266 72.103,12.241 72.152,12.241 72.232,12.241 72.278,12.266 
	72.303,12.266 72.354,12.266 72.378,12.292 72.401,12.292 72.401,12.318 72.427,12.318 72.427,12.341 72.427,12.368 72.457,12.391 
	72.457,12.417 72.457,12.442 72.427,12.466 72.427,12.491 72.427,12.543 72.401,12.593 72.401,12.617 72.378,12.667 71.977,13.671 
	71.952,13.747 71.952,13.823 71.927,13.872 71.927,13.922 71.927,13.999 71.927,14.048 71.927,14.099 71.927,14.148 71.927,14.199 
	71.927,14.249 71.952,14.298 71.952,14.347 71.977,14.398 72.001,14.449 72.028,14.499 72.051,14.524 72.075,14.575 72.103,14.599 
	72.152,14.651 72.176,14.674 72.232,14.701 72.278,14.724 72.328,14.752 72.354,14.776 72.401,14.776 72.457,14.802 72.507,14.802 
	72.554,14.827 72.628,14.827 72.682,14.827 72.729,14.85 72.806,14.85 72.853,14.85 72.93,14.85 73.007,14.827 73.057,14.827 
	73.13,14.802 73.182,14.776 73.256,14.724 73.306,14.701 73.357,14.651 73.407,14.625 73.484,14.575 73.506,14.524 73.559,14.449 
	73.608,14.398 73.658,14.323 73.684,14.274 73.733,14.199 73.76,14.148 73.808,14.073 73.834,13.999 73.857,13.922 73.909,13.872 
	73.936,13.797 73.981,13.723 74.009,13.646 74.034,13.57 74.083,13.496 74.108,13.422 74.135,13.32 74.185,13.246 74.21,13.169 
	74.233,13.069 74.286,12.994 74.31,12.919 74.336,12.843 74.357,12.768 74.384,12.695 74.409,12.617 74.438,12.543 74.459,12.466 
	74.487,12.417 74.511,12.368 74.511,12.292 74.534,12.241 74.562,12.192 74.562,12.141 74.584,12.092 74.584,12.041 74.584,11.99 
	74.611,11.94 74.611,11.891 74.611,11.839 74.611,11.79 74.611,11.741 74.611,11.665 74.584,11.614 74.584,11.564 74.584,11.489 
	74.584,11.438 74.562,11.363 74.562,11.314 74.534,11.238 74.534,11.163 74.511,11.087 74.487,11.012 74.459,10.912 74.409,10.837 
	74.336,10.761 74.26,10.688 74.185,10.635 74.108,10.586 74.009,10.536 73.909,10.485 73.808,10.461 73.684,10.435 73.559,10.409 
	73.432,10.385 73.306,10.385 73.154,10.385 73.007,10.385 71.574,10.385 71.65,10.285 71.727,10.157 71.825,10.058 71.901,9.959 
	71.977,9.858 72.075,9.757 72.152,9.658 72.232,9.557 72.278,9.457 72.354,9.381 72.427,9.305 72.507,9.205 72.554,9.131 
	72.605,9.054 72.682,8.979 72.729,8.905 72.78,8.831 72.83,8.779 72.88,8.704 72.93,8.653 72.981,8.579 73.007,8.529 73.057,8.477 
	73.08,8.427 73.13,8.376 73.154,8.327 73.182,8.301 73.204,8.252 73.232,8.228 73.282,8.151 73.33,8.076 73.383,8.027 73.407,7.95 
	73.457,7.902 73.484,7.826 73.533,7.776 73.559,7.725 73.583,7.677 73.608,7.625 73.632,7.575 73.658,7.526 73.684,7.474 
	73.707,7.449 73.707,7.399 73.733,7.348 73.76,7.274 73.76,7.199 73.76,7.148 73.782,7.073 73.782,7.022 73.76,6.947 73.76,6.897 
	73.76,6.821 73.733,6.771 73.707,6.723 73.684,6.645 73.632,6.596 73.608,6.546 73.559,6.52 73.506,6.472 73.457,6.446 
	73.407,6.396 73.383,6.396 73.33,6.371 73.306,6.345 73.256,6.321 73.204,6.293 73.182,6.293 73.13,6.271 73.08,6.271 73.057,6.245 
	73.007,6.245 72.956,6.221 72.93,6.221 72.88,6.221 72.83,6.221 72.78,6.221 72.704,6.245 72.628,6.271 72.578,6.293 72.507,6.321 
	72.427,6.345 72.378,6.371 72.303,6.419 72.254,6.472 72.204,6.496 72.176,6.52 72.127,6.546 72.075,6.596 72.051,6.645 
	72.001,6.671 71.952,6.723 71.927,6.771 71.877,6.849 71.825,6.897 71.776,6.972 71.727,7.022 71.674,7.098 71.624,7.174 
	71.574,7.248 71.501,7.348 71.449,7.425 71.398,7.5 71.35,7.601 71.272,7.677 71.225,7.776 71.175,7.851 71.097,7.926 71.048,8.027 
	70.971,8.101 70.924,8.177 70.85,8.276 70.798,8.354 70.746,8.453 70.675,8.529 70.595,8.603 70.548,8.704 70.522,8.729 
	70.471,8.779 70.449,8.831 70.419,8.88 70.348,8.956 70.297,9.004 70.272,9.054 70.248,9.105 70.196,9.155 70.145,9.205 
	70.119,9.256 70.069,9.331 70.045,9.381 69.971,9.481 69.921,9.532 69.871,9.607 69.842,9.658 69.794,9.708 69.742,9.757 
	69.692,9.832 69.641,9.883 69.619,9.959 69.566,10.009 69.519,10.083 69.468,10.134 69.415,10.209 69.365,10.259 69.315,10.334 
	69.292,10.385 65.881,10.385 64.648,10.385 61.463,10.385 61.037,10.385 61.037,10.359 61.113,10.334 61.162,10.285 61.188,10.234 
	61.238,10.185 61.288,10.134 61.338,10.108 61.363,10.058 61.389,10.009 61.439,9.959 61.463,9.909 61.463,9.858 61.489,9.832 
	61.514,9.783 61.514,9.733 61.539,9.682 61.539,9.633 61.564,9.58 61.564,9.532 61.564,9.481 61.564,9.431 61.564,9.381 
	61.564,9.355 61.564,9.305 61.564,9.256 61.564,9.205 61.539,9.182 61.539,9.131 61.514,9.081 61.514,9.054 61.489,9.004 
	61.489,8.956 61.463,8.956 61.463,8.93 61.439,8.905 61.414,8.854 61.389,8.804 61.363,8.779 61.338,8.729 61.313,8.679 
	61.263,8.628 61.238,8.579 61.188,8.504 61.162,8.453 61.113,8.376 61.063,8.301 61.012,8.228 60.962,8.151 60.887,8.076 
	60.837,7.976 60.761,7.902 60.711,7.826 60.662,7.75 60.61,7.677 60.535,7.601 60.484,7.526 60.461,7.474 60.409,7.425 60.36,7.373 
	60.31,7.323 60.286,7.274 60.232,7.225 60.209,7.199 60.158,7.148 60.134,7.123 60.107,7.098 60.033,7.073 59.983,7.022 
	59.934,6.999 59.883,6.947 59.832,6.921 59.758,6.897 59.707,6.872 59.632,6.849 59.557,6.849 59.533,6.849 59.48,6.849 
	59.431,6.849 59.38,6.849 59.355,6.849 59.305,6.849 59.257,6.849 59.205,6.872 59.181,6.872 59.129,6.897 59.079,6.897 
	59.055,6.921 59.005,6.921 58.979,6.947 58.93,6.972 58.854,7.022 58.778,7.073 58.704,7.123 58.652,7.174 58.579,7.248 
	58.528,7.323 58.503,7.399 58.453,7.474 58.429,7.575 58.403,7.649 58.377,7.725 58.377,7.802 58.352,7.876 58.377,7.95 
	58.377,8.027 58.403,8.101 58.429,8.151 58.453,8.228 58.479,8.276 58.503,8.354 58.553,8.402 58.579,8.477 58.629,8.555 
	58.679,8.603 58.704,8.653 58.729,8.679 58.754,8.729 58.778,8.752 58.805,8.804 58.829,8.831 58.854,8.854 58.88,8.905 
	58.905,8.93 58.93,8.956 58.954,9.004 58.979,9.029 59.005,9.054 59.029,9.105 59.055,9.131 59.079,9.155 59.581,9.757 
	59.656,9.858 59.758,9.983 59.832,10.058 59.934,10.157 60.008,10.234 60.084,10.309 60.183,10.359 60.183,10.385 58.503,10.385 
	58.377,10.385 58.278,10.385 58.177,10.385 58.076,10.385 57.976,10.385 57.877,10.409 57.776,10.409 57.7,10.435 57.624,10.435 
	57.548,10.461 57.474,10.485 57.399,10.51 57.322,10.536 57.248,10.56 57.197,10.586 57.146,10.609 57.098,10.635 57.047,10.66 
	56.996,10.711 56.947,10.737 56.921,10.761 56.871,10.812 56.82,10.837 56.797,10.885 56.747,10.912 56.721,10.962 56.671,11.012 
	56.646,11.036 56.621,11.087 56.57,11.138 56.546,11.188 56.52,11.238 56.496,11.289 56.445,11.337 56.42,11.388 56.396,11.438 
	56.37,11.489 56.346,11.539 56.346,11.59 56.32,11.637 56.295,11.714 56.269,11.765 56.269,11.814 56.245,11.891 56.221,11.94 
	56.221,11.99 56.195,12.065 56.195,12.115 55.969,13.597 55.969,13.646 55.944,13.697 55.944,13.747 55.944,13.797 55.944,13.848 
	55.944,13.896 55.969,13.948 "/>
<polygon fill="#E60012" points="68.715,20.02 68.741,20.069 68.792,20.095 68.815,20.144 68.842,20.171 68.864,20.22 68.915,20.245 
	68.939,20.27 68.992,20.296 69.017,20.321 69.065,20.346 69.113,20.37 69.166,20.396 69.192,20.421 69.241,20.421 69.292,20.446 
	69.342,20.446 69.392,20.446 69.443,20.472 69.492,20.472 69.541,20.472 69.593,20.472 69.641,20.472 69.692,20.472 69.742,20.446 
	69.794,20.446 69.842,20.421 69.895,20.421 69.946,20.396 69.995,20.37 70.021,20.346 70.069,20.321 70.119,20.296 70.145,20.27 
	70.196,20.22 70.248,20.196 70.272,20.171 70.32,20.12 70.348,20.069 70.372,20.045 70.399,19.995 70.419,19.945 70.471,19.92 
	70.471,19.867 70.495,19.819 70.522,19.768 70.548,19.719 70.572,19.668 70.572,19.619 70.595,19.568 70.595,19.517 70.623,19.468 
	71.272,15.328 71.272,15.228 71.298,15.127 71.298,15.027 71.298,14.927 71.298,14.827 71.298,14.724 71.298,14.625 71.298,14.551 
	71.298,14.449 71.272,14.374 71.248,14.274 71.248,14.199 71.225,14.122 71.175,14.048 71.148,13.973 71.097,13.922 71.072,13.848 
	71.022,13.772 70.949,13.723 70.899,13.671 70.824,13.621 70.746,13.57 70.675,13.545 70.572,13.496 70.495,13.471 70.399,13.445 
	70.32,13.422 70.221,13.422 70.119,13.395 69.995,13.395 69.895,13.395 69.768,13.372 65.881,13.372 64.648,13.372 61.463,13.372 
	60.033,13.372 59.934,13.372 59.857,13.395 59.758,13.395 59.656,13.395 59.581,13.422 59.506,13.422 59.405,13.445 59.33,13.445 
	59.257,13.471 59.205,13.496 59.129,13.521 59.055,13.545 59.005,13.597 58.954,13.621 58.88,13.671 58.829,13.697 58.805,13.747 
	58.754,13.772 58.729,13.823 58.679,13.848 58.652,13.896 58.629,13.948 58.579,13.973 58.553,14.023 58.528,14.073 58.503,14.099 
	58.479,14.148 58.453,14.199 58.429,14.249 58.403,14.298 58.377,14.323 58.352,14.374 58.328,14.426 58.328,14.475 58.301,14.524 
	58.278,14.575 58.253,14.625 58.253,14.674 58.226,14.724 58.226,14.776 58.2,14.827 58.2,14.876 58.177,14.927 58.177,14.977 
	58.153,15.027 58.153,15.075 58.126,15.127 58.126,15.176 57.448,19.492 57.448,19.543 57.448,19.592 57.425,19.643 57.425,19.694 
	57.448,19.744 57.448,19.794 57.448,19.844 57.448,19.896 57.474,19.92 57.501,19.968 57.501,20.02 57.524,20.069 57.548,20.095 
	57.574,20.144 57.602,20.196 57.624,20.22 57.7,20.296 57.776,20.346 57.852,20.396 57.95,20.446 58.025,20.472 58.126,20.497 
	58.226,20.497 58.328,20.497 58.377,20.497 58.429,20.497 58.479,20.497 58.528,20.472 58.553,20.472 58.604,20.446 58.652,20.446 
	58.704,20.421 58.754,20.396 58.778,20.37 58.829,20.346 58.88,20.321 58.905,20.296 58.954,20.27 58.979,20.245 59.029,20.196 
	59.055,20.171 59.079,20.144 59.129,20.095 59.154,20.069 59.181,20.02 59.205,19.995 59.229,19.945 59.257,19.92 59.28,19.867 
	59.28,19.819 59.305,19.794 59.33,19.744 59.33,19.694 59.355,19.668 59.355,19.619 59.355,19.568 59.956,15.855 59.956,15.779 
	59.983,15.705 59.983,15.653 60.008,15.579 60.033,15.528 60.033,15.503 60.057,15.453 60.057,15.428 60.084,15.401 60.107,15.38 
	60.107,15.352 60.134,15.352 60.158,15.328 60.183,15.303 60.209,15.303 60.232,15.278 60.259,15.278 60.286,15.278 60.31,15.252 
	60.332,15.252 60.36,15.252 60.387,15.252 60.409,15.252 60.461,15.252 60.484,15.228 60.535,15.228 60.562,15.228 60.61,15.228 
	60.662,15.228 60.711,15.228 61.463,15.228 64.648,15.228 65.881,15.228 68.815,15.228 68.864,15.228 68.915,15.228 68.965,15.228 
	69.017,15.252 69.065,15.252 69.091,15.252 69.143,15.252 69.166,15.278 69.192,15.278 69.192,15.303 69.218,15.303 69.218,15.328 
	69.218,15.352 69.218,15.38 69.218,15.401 69.218,15.428 69.218,15.453 69.218,15.478 69.218,15.503 69.218,15.528 69.218,15.554 
	69.218,15.579 69.218,15.604 69.218,15.629 69.218,15.653 69.218,15.679 68.64,19.392 68.616,19.443 68.616,19.492 68.616,19.543 
	68.616,19.592 68.616,19.643 68.616,19.694 68.616,19.744 68.64,19.794 68.64,19.844 68.664,19.896 68.688,19.945 68.688,19.968 "/>
<polygon fill="#E60012" points="64.575,7.373 64.575,7.449 64.599,7.526 64.625,7.601 64.648,7.677 64.648,7.75 64.674,7.75 
	64.699,7.851 64.727,7.926 64.749,8.027 64.774,8.101 64.825,8.177 64.85,8.252 64.875,8.327 64.901,8.402 64.925,8.477 
	64.95,8.555 64.977,8.628 65,8.679 65.025,8.752 65.05,8.804 65.05,8.88 65.079,8.93 65.101,8.979 65.126,9.029 65.126,9.081 
	65.154,9.131 65.177,9.182 65.177,9.231 65.202,9.282 65.227,9.331 65.227,9.381 65.254,9.431 65.277,9.457 65.304,9.507 
	65.328,9.557 65.328,9.58 65.352,9.633 65.376,9.658 65.401,9.708 65.43,9.733 65.453,9.783 65.479,9.832 65.554,9.909 
	65.604,9.959 65.655,10.009 65.729,10.058 65.778,10.108 65.854,10.134 65.881,10.157 65.931,10.185 66.005,10.209 66.056,10.209 
	66.13,10.234 66.206,10.234 66.281,10.234 66.356,10.234 66.432,10.209 66.507,10.209 66.582,10.185 66.657,10.134 66.758,10.108 
	66.832,10.058 66.882,10.009 66.959,9.959 67.009,9.883 67.059,9.832 67.106,9.757 67.134,9.682 67.184,9.58 67.184,9.507 
	67.21,9.431 67.21,9.331 67.21,9.231 67.21,9.155 67.184,9.081 67.184,8.979 67.184,8.905 67.159,8.831 67.159,8.752 67.134,8.704 
	67.134,8.628 67.106,8.555 67.106,8.504 67.106,8.427 67.085,8.376 67.059,8.327 67.059,8.252 67.032,8.202 67.032,8.151 
	67.009,8.101 66.982,8.051 66.982,8.001 66.959,7.95 66.934,7.902 66.905,7.851 66.905,7.776 66.882,7.725 66.856,7.649 
	66.832,7.575 66.807,7.526 66.783,7.449 66.758,7.348 66.707,7.274 66.683,7.199 66.657,7.098 66.633,7.022 66.607,6.972 
	66.582,6.921 66.557,6.872 66.532,6.821 66.532,6.771 66.507,6.723 66.481,6.671 66.456,6.645 66.432,6.596 66.432,6.571 
	66.406,6.52 66.382,6.496 66.356,6.472 66.331,6.419 66.306,6.396 66.281,6.371 66.231,6.321 66.206,6.293 66.155,6.245 
	66.104,6.221 66.056,6.168 66.005,6.145 65.955,6.12 65.881,6.095 65.829,6.095 65.778,6.068 65.729,6.068 65.705,6.068 
	65.655,6.068 65.604,6.068 65.554,6.068 65.529,6.068 65.479,6.095 65.43,6.095 65.376,6.095 65.352,6.12 65.304,6.12 65.254,6.145 
	65.202,6.145 65.154,6.168 65.05,6.221 64.95,6.271 64.875,6.345 64.8,6.419 64.727,6.52 64.674,6.62 64.648,6.645 64.625,6.723 
	64.599,6.821 64.575,6.897 64.575,6.947 64.549,7.022 64.549,7.098 64.549,7.148 64.549,7.225 64.575,7.299 "/>
<polygon fill="#E60012" points="71.877,24.46 71.927,24.435 72.001,24.388 72.051,24.336 72.103,24.284 72.152,24.233 
	72.204,24.184 72.232,24.11 72.278,24.06 72.328,24.008 72.354,23.958 72.401,23.884 72.457,23.831 72.479,23.759 72.528,23.683 
	72.554,23.632 72.605,23.559 72.628,23.481 72.682,23.407 72.704,23.331 72.754,23.255 72.78,23.181 72.806,23.082 72.853,23.004 
	72.88,22.93 72.904,22.856 72.93,22.778 72.956,22.705 72.981,22.63 73.007,22.552 73.031,22.478 73.057,22.404 73.08,22.327 
	73.105,22.278 73.13,22.202 73.13,22.153 73.154,22.076 73.154,22.027 73.182,21.951 73.182,21.875 73.204,21.801 73.204,21.751 
	73.204,21.675 73.204,21.625 73.204,21.575 73.204,21.5 73.204,21.45 73.204,21.399 73.182,21.349 73.182,21.299 73.154,21.249 
	73.13,21.2 73.105,21.149 73.08,21.099 73.031,21.048 72.981,20.998 72.904,20.949 72.853,20.898 72.78,20.872 72.704,20.848 
	72.605,20.821 72.528,20.796 72.457,20.796 72.378,20.796 72.303,20.796 72.232,20.796 72.152,20.796 72.075,20.821 72.001,20.821 
	71.952,20.848 71.877,20.872 71.825,20.898 71.776,20.921 71.702,20.972 71.65,20.998 71.601,21.048 71.574,21.099 71.525,21.149 
	71.501,21.2 71.474,21.249 71.449,21.299 71.424,21.349 71.398,21.399 71.398,21.45 71.374,21.475 71.35,21.525 71.325,21.575 
	71.298,21.625 71.298,21.675 71.272,21.725 71.248,21.777 71.248,21.826 71.225,21.875 71.198,21.925 71.198,21.977 71.175,22.027 
	71.175,22.051 71.148,22.1 71.148,22.153 71.124,22.177 71.124,22.227 71.097,22.278 71.097,22.303 71.072,22.354 71.072,22.377 
	71.048,22.427 71.022,22.453 71.022,22.478 70.999,22.53 70.999,22.552 70.971,22.58 70.949,22.63 70.924,22.679 70.899,22.729 
	70.874,22.778 70.85,22.804 70.798,22.856 70.746,22.881 70.723,22.93 70.696,22.93 70.675,22.955 70.646,22.955 70.623,22.955 
	70.595,22.955 70.572,22.98 70.548,22.98 70.522,22.98 70.471,22.98 70.449,23.004 70.399,23.004 70.348,23.004 70.297,23.004 
	70.248,23.03 70.196,23.03 70.145,23.03 70.095,23.03 70.045,23.03 69.971,23.056 69.921,23.056 69.842,23.056 69.768,23.056 
	69.692,23.056 69.619,23.056 69.541,23.056 69.468,23.082 69.392,23.082 69.315,23.082 69.218,23.082 69.113,23.082 68.992,23.082 
	68.892,23.082 68.792,23.082 68.664,23.082 68.566,23.082 68.464,23.082 68.364,23.082 68.264,23.082 68.163,23.082 68.089,23.082 
	67.988,23.082 67.911,23.082 67.813,23.082 67.736,23.082 67.637,23.082 67.561,23.082 67.488,23.082 67.411,23.082 67.336,23.082 
	67.258,23.082 67.21,23.082 67.134,23.082 67.059,23.082 67.009,23.082 66.934,23.056 66.882,23.056 66.832,23.056 66.783,23.056 
	66.732,23.056 66.683,23.056 66.633,23.056 66.532,23.03 66.456,23.03 66.382,23.004 66.306,23.004 66.231,23.004 66.181,22.98 
	66.104,22.98 66.056,22.955 66.03,22.955 65.979,22.93 65.955,22.93 65.931,22.904 65.931,22.881 65.905,22.856 65.905,22.83 
	65.881,22.804 65.881,22.778 65.881,22.756 65.881,22.729 65.881,22.705 65.881,22.679 65.881,22.653 65.881,22.604 65.881,22.552 
	65.881,22.504 65.881,22.478 65.905,22.404 65.905,22.327 66.231,20.245 66.231,20.196 66.256,20.144 66.231,20.069 66.231,20.02 
	66.231,19.968 66.231,19.92 66.206,19.867 66.206,19.819 66.181,19.768 66.155,19.719 66.155,19.668 66.13,19.643 66.08,19.592 
	66.056,19.543 66.03,19.517 66.005,19.468 65.955,19.443 65.905,19.392 65.881,19.367 65.829,19.343 65.778,19.316 65.755,19.292 
	65.705,19.267 65.655,19.267 65.604,19.243 65.554,19.243 65.505,19.243 65.453,19.216 65.401,19.216 65.352,19.216 65.304,19.243 
	65.254,19.243 65.202,19.243 65.154,19.267 65.101,19.267 65.05,19.267 65,19.292 64.977,19.316 64.925,19.316 64.875,19.343 
	64.85,19.367 64.8,19.392 64.749,19.417 64.727,19.443 64.674,19.468 64.648,19.492 64.625,19.543 64.575,19.568 64.523,19.643 
	64.474,19.694 64.424,19.768 64.373,19.844 64.351,19.92 64.298,20.02 64.298,20.095 64.272,20.171 63.822,23.03 63.822,23.082 
	63.796,23.131 63.796,23.181 63.796,23.232 63.796,23.308 63.796,23.357 63.822,23.407 63.822,23.481 63.822,23.532 63.822,23.584 
	63.846,23.658 63.846,23.708 63.873,23.783 63.873,23.859 63.896,23.908 63.922,23.984 63.948,24.084 63.972,24.16 64.021,24.233 
	64.072,24.31 64.122,24.388 64.197,24.435 64.272,24.487 64.351,24.535 64.424,24.587 64.502,24.637 64.599,24.686 64.648,24.712 
	64.699,24.712 64.8,24.735 64.901,24.762 65.025,24.786 65.154,24.813 65.202,24.838 65.277,24.838 65.328,24.838 65.401,24.862 
	65.479,24.862 65.579,24.862 65.655,24.862 65.729,24.887 65.829,24.887 65.881,24.887 65.931,24.887 66.03,24.887 66.13,24.913 
	66.231,24.913 66.356,24.913 66.456,24.913 66.582,24.936 66.707,24.936 66.832,24.936 66.959,24.936 67.106,24.936 67.234,24.936 
	67.383,24.936 67.536,24.936 67.688,24.962 67.838,24.962 67.988,24.962 68.163,24.962 68.314,24.962 68.49,24.962 68.664,24.962 
	68.842,24.962 69.017,24.962 69.113,24.962 69.218,24.962 69.315,24.962 69.415,24.962 69.492,24.962 69.593,24.962 69.667,24.962 
	69.768,24.962 69.842,24.962 69.921,24.962 69.995,24.962 70.069,24.936 70.145,24.936 70.221,24.936 70.297,24.936 70.372,24.936 
	70.419,24.936 70.495,24.913 70.572,24.913 70.623,24.913 70.675,24.913 70.746,24.887 70.798,24.887 70.85,24.887 70.899,24.862 
	70.949,24.862 70.999,24.862 71.048,24.838 71.097,24.838 71.148,24.813 71.175,24.813 71.225,24.786 71.298,24.786 71.374,24.735 
	71.449,24.712 71.501,24.686 71.574,24.66 71.65,24.612 71.702,24.587 71.776,24.559 71.825,24.511 "/>
<polygon points="38.653,31.96 38.462,28.137 37.063,28.137 35.283,31.96 34.888,28.137 33.521,28.137 34.233,33.836 35.659,33.836 
	37.397,30.209 37.678,33.836 39.128,33.836 41.966,28.137 40.419,28.137 "/>
<polygon points="47.201,31.96 47.009,28.137 45.608,28.137 43.831,31.96 43.433,28.137 42.067,28.137 42.78,33.836 44.207,33.836 
	45.945,30.209 46.226,33.836 47.673,33.836 50.514,28.137 48.966,28.137 "/>
<polygon points="57.514,28.137 55.749,31.96 55.556,28.137 54.156,28.137 52.381,31.96 51.983,28.137 50.614,28.137 51.327,33.836 
	52.754,33.836 54.492,30.209 54.771,33.836 56.222,33.836 59.059,28.137 "/>
<polygon points="58.447,33.836 59.973,33.836 60.283,32.35 58.758,32.35 "/>
<path d="M63.773,29.225c0.141-0.104,0.373-0.156,0.694-0.156c0.322,0,0.597,0.07,0.826,0.207c0.168,0.106,0.289,0.26,0.364,0.465
	l1.421-0.246c-0.098-0.457-0.336-0.82-0.713-1.086c-0.374-0.271-0.929-0.405-1.663-0.405c-0.923,0-1.615,0.229-2.087,0.683
	c-0.337,0.326-0.505,0.714-0.505,1.165s0.173,0.816,0.522,1.095c0.222,0.178,0.796,0.421,1.727,0.731
	c0.348,0.109,0.561,0.209,0.637,0.288c0.078,0.08,0.113,0.173,0.113,0.277c0,0.155-0.071,0.284-0.219,0.393
	c-0.21,0.158-0.493,0.235-0.842,0.235c-0.341,0-0.608-0.064-0.805-0.194c-0.197-0.131-0.362-0.354-0.494-0.668l-1.491,0.234
	c0.159,0.549,0.466,0.972,0.913,1.276c0.45,0.299,1.085,0.452,1.909,0.452c0.825,0,1.467-0.2,1.92-0.595
	c0.455-0.397,0.683-0.864,0.683-1.405c0-0.422-0.181-0.777-0.536-1.074c-0.257-0.211-0.758-0.428-1.508-0.646
	c-0.488-0.142-0.774-0.242-0.865-0.299c-0.145-0.095-0.214-0.212-0.214-0.354C63.562,29.458,63.631,29.335,63.773,29.225z"/>
<path d="M72.124,28.003c-0.344,0-0.665,0.063-0.966,0.181c-0.298,0.122-0.623,0.317-0.97,0.59l0.59-2.804h-1.539l-1.647,7.866h1.541
	l0.468-2.26c0.146-0.697,0.266-1.147,0.355-1.332c0.16-0.345,0.396-0.634,0.702-0.872c0.239-0.178,0.486-0.266,0.744-0.266
	c0.202,0,0.363,0.054,0.479,0.169c0.119,0.114,0.177,0.268,0.177,0.456c0,0.102-0.035,0.339-0.112,0.708l-0.712,3.396h1.542
	l0.693-3.331c0.104-0.478,0.15-0.834,0.15-1.063c0-0.429-0.131-0.776-0.4-1.041C72.949,28.136,72.588,28.003,72.124,28.003z"/>
<polygon points="74.281,33.836 75.821,33.836 77.013,28.137 75.473,28.137 "/>
<path d="M77.551,32.862c-0.204,0.968-0.372,1.532-0.496,1.694c-0.126,0.158-0.289,0.241-0.5,0.241c-0.164,0-0.374-0.031-0.622-0.091
	l-0.242,1.271c0.352,0.116,0.738,0.171,1.158,0.171c0.684,0,1.176-0.229,1.484-0.684c0.201-0.292,0.45-1.125,0.735-2.503
	l1.012-4.826h-1.546L77.551,32.862z"/>
<path d="M84.642,30.854c-0.077,0.372-0.151,0.641-0.219,0.804c-0.098,0.223-0.202,0.4-0.312,0.538
	c-0.111,0.133-0.237,0.255-0.376,0.36c-0.142,0.108-0.275,0.184-0.406,0.238c-0.136,0.05-0.268,0.075-0.404,0.075
	c-0.188,0-0.346-0.059-0.465-0.176c-0.124-0.12-0.184-0.261-0.184-0.423c0-0.102,0.043-0.353,0.129-0.757l0.703-3.378h-1.543
	l-0.663,3.181c-0.124,0.584-0.183,0.976-0.183,1.173c0,0.449,0.136,0.809,0.402,1.081c0.269,0.265,0.638,0.399,1.105,0.399
	c0.742,0,1.426-0.304,2.058-0.906l-0.164,0.771h1.439l1.19-5.699h-1.54L84.642,30.854z"/>
<path d="M90.472,28.003c-1.09,0-1.936,0.414-2.522,1.236c-0.436,0.606-0.65,1.301-0.65,2.081c0,0.798,0.239,1.44,0.717,1.924
	c0.48,0.484,1.102,0.727,1.864,0.727c0.565,0,1.065-0.137,1.514-0.416c0.448-0.276,0.81-0.692,1.073-1.246l-1.374-0.231
	c-0.289,0.529-0.686,0.793-1.197,0.793c-0.31,0-0.574-0.116-0.792-0.348c-0.216-0.231-0.325-0.539-0.325-0.916
	c0-0.035,0.003-0.081,0.008-0.143h3.86c0.072-0.297,0.108-0.631,0.108-1.001c0-0.775-0.206-1.381-0.618-1.813
	C91.725,28.221,91.173,28.003,90.472,28.003z M91.349,30.526h-2.409c0.092-0.468,0.258-0.82,0.513-1.063
	c0.25-0.242,0.537-0.357,0.856-0.357c0.316,0,0.572,0.105,0.761,0.313c0.188,0.214,0.286,0.529,0.286,0.953
	C91.355,30.405,91.352,30.458,91.349,30.526z"/>
<polygon points="93.259,33.836 94.776,33.836 95.091,32.35 93.564,32.35 "/>
<path d="M103.925,28.003c-0.396,0-0.78,0.097-1.146,0.293c-0.372,0.19-0.654,0.431-0.85,0.717c-0.062-0.316-0.213-0.562-0.446-0.741
	c-0.232-0.178-0.562-0.269-0.991-0.269c-0.622,0-1.214,0.278-1.778,0.828l0.141-0.694h-1.446l-1.191,5.699h1.541l0.545-2.617
	c0.096-0.454,0.167-0.745,0.21-0.875c0.094-0.275,0.214-0.5,0.348-0.675c0.13-0.178,0.291-0.314,0.468-0.415
	c0.178-0.101,0.352-0.147,0.522-0.147c0.177,0,0.319,0.045,0.418,0.144c0.102,0.097,0.151,0.22,0.151,0.371
	c0,0.117-0.04,0.376-0.12,0.77l-0.72,3.445h1.539l0.543-2.586c0.156-0.734,0.34-1.25,0.557-1.538
	c0.303-0.406,0.645-0.605,1.023-0.605c0.193,0,0.335,0.043,0.429,0.136c0.094,0.089,0.146,0.214,0.146,0.37
	c0,0.059-0.045,0.305-0.136,0.742l-0.729,3.481h1.535l0.733-3.481c0.099-0.482,0.148-0.823,0.148-1.02
	c0-0.401-0.127-0.722-0.382-0.967C104.736,28.126,104.377,28.003,103.925,28.003z"/>
<path d="M109.406,28.003c-1.092,0-1.934,0.414-2.525,1.236c-0.436,0.606-0.649,1.301-0.649,2.081c0,0.798,0.238,1.44,0.72,1.924
	c0.481,0.484,1.106,0.727,1.867,0.727c0.559,0,1.064-0.137,1.512-0.416c0.448-0.276,0.807-0.692,1.074-1.246l-1.376-0.231
	c-0.287,0.529-0.686,0.793-1.199,0.793c-0.313,0-0.574-0.116-0.79-0.348c-0.214-0.231-0.326-0.539-0.326-0.916
	c0-0.035,0.002-0.081,0.004-0.143h3.863c0.074-0.297,0.106-0.631,0.106-1.001c0-0.775-0.202-1.381-0.61-1.813
	C110.659,28.221,110.107,28.003,109.406,28.003z M110.282,30.526h-2.408c0.092-0.468,0.259-0.82,0.515-1.063
	c0.251-0.242,0.535-0.357,0.854-0.357c0.317,0,0.571,0.105,0.76,0.313c0.19,0.214,0.286,0.529,0.286,0.953
	C110.289,30.405,110.285,30.458,110.282,30.526z"/>
<path fill="#E60012" d="M80.704,17.042c0,1.001-0.812,1.814-1.81,1.814l0,0c-1.004,0-1.816-0.813-1.816-1.814l0,0
	c0-1.001,0.813-1.813,1.816-1.813l0,0C79.893,15.229,80.704,16.041,80.704,17.042L80.704,17.042z"/>
<path fill="#E60012" d="M90.257,23.768c-0.069,0-0.136-0.006-0.205-0.019c-0.644-0.113-1.076-0.727-0.961-1.372l1.53-8.689
	c0.116-0.644,0.732-1.073,1.374-0.961c0.642,0.114,1.072,0.727,0.958,1.373l-1.532,8.69C91.321,23.364,90.822,23.768,90.257,23.768z
	"/>
<path fill="#E60012" d="M83.817,23.768c-0.07,0-0.136-0.006-0.208-0.019c-0.642-0.113-1.072-0.727-0.96-1.372l0.01-0.057l1.44-8.162
	c0.002-0.007,0.002-0.015,0.004-0.024c0.416-2.348,2.587-4.188,4.945-4.188c1.208,0,2.27,0.479,2.998,1.347
	c0.728,0.868,1.028,2.056,0.814,3.256c-0.113,0.644-0.73,1.071-1.372,0.96c-0.644-0.114-1.071-0.728-0.958-1.372
	c0.09-0.517-0.014-0.987-0.297-1.323c-0.272-0.324-0.69-0.501-1.186-0.501c-1.204,0-2.4,1.023-2.614,2.236l-1.454,8.24
	C84.879,23.364,84.381,23.768,83.817,23.768z"/>
<path fill="#E60012" d="M96.664,23.768c-0.065,0-0.136-0.006-0.204-0.019c-0.647-0.113-1.075-0.727-0.963-1.372l1.452-8.239
	c0.092-0.517-0.012-0.987-0.295-1.323c-0.271-0.324-0.692-0.501-1.186-0.501c-1.203,0-2.401,1.023-2.614,2.235
	c-0.112,0.644-0.728,1.073-1.369,0.961c-0.646-0.114-1.075-0.727-0.962-1.372c0.412-2.351,2.585-4.192,4.945-4.192
	c1.205,0,2.271,0.479,3,1.347c0.729,0.868,1.024,2.056,0.813,3.257v0.002c-0.002,0.006-0.002,0.013-0.002,0.018l-1.452,8.22
	C97.728,23.364,97.229,23.768,96.664,23.768z"/>
<path fill="#E60012" d="M112.873,17.897h-11.868c-0.352,0-0.68-0.154-0.906-0.423c-0.226-0.268-0.321-0.622-0.26-0.966
	c0.674-3.812,4.325-6.913,8.146-6.913c1.923,0,3.617,0.755,4.771,2.129c1.172,1.397,1.628,3.242,1.283,5.195
	C113.939,17.485,113.447,17.897,112.873,17.897z M102.614,15.531h9.166c-0.029-0.871-0.316-1.661-0.838-2.285
	c-0.695-0.828-1.746-1.283-2.957-1.283C105.741,11.963,103.576,13.471,102.614,15.531z"/>
<path fill="#E60012" d="M105.93,23.62c-1.924,0-3.62-0.757-4.771-2.128c-1.171-1.397-1.626-3.242-1.281-5.195
	c0.11-0.644,0.729-1.074,1.371-0.959c0.641,0.112,1.075,0.727,0.958,1.371c-0.22,1.251,0.055,2.41,0.769,3.262
	c0.692,0.827,1.745,1.283,2.955,1.283c1.598,0,3.249-0.796,4.421-2.129c0.432-0.49,1.178-0.541,1.671-0.109
	c0.49,0.431,0.54,1.179,0.108,1.67C110.516,22.523,108.199,23.62,105.93,23.62z"/>
<path fill="#E60012" d="M29.812,32.13c0,1.833-1.484,3.316-3.314,3.316H3.307c-1.833,0-3.316-1.483-3.316-3.316V8.94
	c0-1.832,1.483-3.315,3.316-3.315h23.19c1.83,0,3.314,1.483,3.314,3.315V32.13z"/>
<g>
	<path fill="#FFFFFF" d="M15.211,17.252c-1.439,0-2.598,1.156-2.598,2.595c0,1.413,1.158,2.571,2.598,2.597
		c1.441,0,2.597-1.185,2.597-2.597C17.808,18.409,16.652,17.252,15.211,17.252z"/>
	<path fill="#FFFFFF" d="M17.386,12.649l0.225-1.355c0.113-0.677-0.338-1.298-1.014-1.411c-0.624-0.111-1.218,0.254-1.386,0.848
		c-0.028,0.055-0.028,0.111-0.057,0.168l-0.281,1.694c-7.819,0.509-11.461,6.859-11.461,6.859s2.4,5.814,9.089,6.974l-0.818,4.657
		c-0.112,0.677,0.366,1.326,1.044,1.44c0.65,0.112,1.299-0.367,1.412-1.018l0.846-4.913h0.227
		c7.453-0.253,11.799-6.859,11.799-6.859S24.387,13.47,17.386,12.649z M15.211,24.365h-0.705c-5.561-0.199-7.452-4.884-7.452-4.884
		s2.597-4.346,8.157-4.601h0.282c5.73-0.085,7.848,4.796,7.848,4.796S20.32,24.139,15.211,24.365z"/>
</g>
<g>
	<path d="M115.432,7.834h-0.668V2h0.716v2.082c0.302-0.38,0.69-0.569,1.159-0.569c0.258,0,0.506,0.052,0.735,0.157
		c0.234,0.103,0.423,0.253,0.571,0.44c0.153,0.189,0.27,0.42,0.354,0.687c0.087,0.268,0.129,0.555,0.129,0.86
		c0,0.722-0.181,1.282-0.538,1.678c-0.358,0.395-0.786,0.593-1.291,0.593c-0.498,0-0.891-0.207-1.168-0.624V7.834z M115.424,5.688
		c0,0.506,0.063,0.873,0.2,1.1c0.229,0.369,0.534,0.552,0.916,0.552c0.314,0,0.584-0.137,0.811-0.408
		c0.231-0.272,0.343-0.677,0.343-1.214c0-0.552-0.105-0.959-0.322-1.223c-0.224-0.263-0.486-0.394-0.799-0.394
		c-0.309,0-0.581,0.136-0.807,0.408C115.534,4.782,115.424,5.175,115.424,5.688z"/>
	<path d="M122.277,6.472l0.742,0.092c-0.115,0.434-0.332,0.769-0.646,1.007c-0.316,0.237-0.719,0.357-1.212,0.357
		c-0.619,0-1.107-0.19-1.469-0.57c-0.363-0.381-0.546-0.916-0.546-1.603c0-0.709,0.183-1.261,0.55-1.654
		c0.364-0.393,0.843-0.588,1.424-0.588c0.564,0,1.029,0.192,1.383,0.576c0.362,0.384,0.542,0.925,0.542,1.623
		c0,0.042,0,0.105-0.006,0.192h-3.146c0.023,0.463,0.154,0.818,0.388,1.064c0.242,0.248,0.53,0.371,0.884,0.371
		c0.265,0,0.49-0.07,0.676-0.207C122.021,6.996,122.172,6.774,122.277,6.472z M119.932,5.314h2.354
		c-0.029-0.355-0.118-0.622-0.267-0.801c-0.231-0.273-0.525-0.412-0.892-0.412c-0.325,0-0.601,0.111-0.826,0.33
		C120.078,4.653,119.952,4.946,119.932,5.314z"/>
	<path d="M125.572,7.191l0.101,0.633c-0.2,0.041-0.378,0.063-0.539,0.063c-0.26,0-0.462-0.041-0.606-0.124
		c-0.145-0.081-0.242-0.189-0.303-0.323c-0.056-0.135-0.084-0.417-0.084-0.847V4.166h-0.525V3.608h0.525V2.561l0.711-0.429v1.476
		h0.721v0.558h-0.721v2.47c0,0.203,0.012,0.336,0.041,0.392c0.023,0.061,0.06,0.105,0.12,0.141c0.061,0.035,0.138,0.051,0.243,0.051
		C125.337,7.22,125.438,7.211,125.572,7.191z"/>
	<path d="M129.116,7.312c-0.264,0.225-0.515,0.383-0.766,0.476c-0.246,0.095-0.508,0.14-0.787,0.14c-0.462,0-0.82-0.112-1.072-0.341
		c-0.247-0.226-0.371-0.514-0.371-0.868c0-0.208,0.045-0.395,0.144-0.566c0.094-0.17,0.214-0.309,0.365-0.411
		c0.153-0.104,0.323-0.182,0.52-0.236c0.134-0.037,0.35-0.072,0.63-0.107c0.584-0.07,1.01-0.151,1.282-0.246
		c0-0.097,0.003-0.16,0.003-0.187c0-0.293-0.069-0.498-0.203-0.618c-0.183-0.162-0.452-0.241-0.813-0.241
		c-0.339,0-0.591,0.058-0.751,0.176c-0.161,0.12-0.275,0.327-0.354,0.626l-0.699-0.094c0.061-0.302,0.172-0.543,0.313-0.728
		c0.148-0.183,0.356-0.326,0.634-0.425s0.591-0.148,0.96-0.148c0.355,0,0.649,0.042,0.88,0.128c0.228,0.083,0.388,0.19,0.494,0.319
		c0.104,0.129,0.181,0.292,0.222,0.489c0.024,0.123,0.035,0.34,0.035,0.659v0.956c0,0.665,0.017,1.084,0.047,1.263
		c0.036,0.176,0.093,0.344,0.182,0.508h-0.746C129.188,7.684,129.136,7.51,129.116,7.312z M129.061,5.712
		c-0.261,0.105-0.652,0.197-1.166,0.272c-0.3,0.042-0.51,0.089-0.629,0.141c-0.122,0.051-0.217,0.132-0.284,0.234
		c-0.063,0.101-0.097,0.215-0.097,0.34c0,0.191,0.067,0.351,0.217,0.477c0.143,0.128,0.353,0.192,0.635,0.192
		c0.271,0,0.519-0.062,0.732-0.183c0.217-0.12,0.375-0.284,0.476-0.494c0.078-0.162,0.116-0.402,0.116-0.715V5.712z"/>
</g>
</svg>
